<?xml version="1.0" encoding="UTF-8" standalone="no"?>
<svg
   xmlns:dc="http://purl.org/dc/elements/1.1/"
   xmlns:cc="http://creativecommons.org/ns#"
   xmlns:rdf="http://www.w3.org/1999/02/22-rdf-syntax-ns#"
   xmlns:svg="http://www.w3.org/2000/svg"
   xmlns="http://www.w3.org/2000/svg"
   xmlns:sodipodi="http://sodipodi.sourceforge.net/DTD/sodipodi-0.dtd"
   xmlns:inkscape="http://www.inkscape.org/namespaces/inkscape"
   inkscape:version="1.0 (4035a4fb49, 2020-05-01)"
   sodipodi:docname="Boyner_logo.svg"
   xml:space="preserve"
   enable-background="new 0 0 150 76.2"
   viewBox="0 0 130.028 56.191004"
   height="56.191002"
   width="130.028"
   y="0px"
   x="0px"
   id="katman_1"
   version="1.1"><metadata
   id="metadata23"><rdf:RDF><cc:Work
       rdf:about=""><dc:format>image/svg+xml</dc:format><dc:type
         rdf:resource="http://purl.org/dc/dcmitype/StillImage" /><dc:title></dc:title></cc:Work></rdf:RDF></metadata><defs
   id="defs21" /><sodipodi:namedview
   inkscape:current-layer="katman_1"
   inkscape:window-maximized="1"
   inkscape:window-y="-9"
   inkscape:window-x="-9"
   inkscape:cy="28.099998"
   inkscape:cx="65"
   inkscape:zoom="8.0333333"
   fit-margin-bottom="0"
   fit-margin-right="0"
   fit-margin-left="0"
   fit-margin-top="0"
   showgrid="false"
   id="namedview19"
   inkscape:window-height="1001"
   inkscape:window-width="1920"
   inkscape:pageshadow="2"
   inkscape:pageopacity="0"
   guidetolerance="10"
   gridtolerance="10"
   objecttolerance="10"
   borderopacity="1"
   bordercolor="#666666"
   pagecolor="#ffffff" />
<g
   transform="translate(-10,-10)"
   id="g16">
	<path
   id="path2"
   d="m 38.663,36.27 c 0,2.802 0.845,5.104 2.533,6.907 1.688,1.766 3.856,2.647 6.504,2.647 2.646,0 4.814,-0.882 6.502,-2.647 1.689,-1.804 2.532,-4.105 2.532,-6.907 0,-2.801 -0.843,-5.083 -2.532,-6.849 -1.688,-1.802 -3.855,-2.704 -6.502,-2.704 -2.647,0 -4.816,0.902 -6.504,2.704 -1.688,1.766 -2.533,4.048 -2.533,6.849 m -5.294,0 c 0,-4.182 1.438,-7.654 4.315,-10.416 2.763,-2.647 6.102,-3.971 10.016,-3.971 3.912,0 7.251,1.323 10.013,3.971 2.879,2.762 4.317,6.234 4.317,10.416 0,4.184 -1.42,7.636 -4.259,10.36 -2.802,2.686 -6.159,4.027 -10.071,4.027 -3.914,0 -7.253,-1.342 -10.016,-4.027 -2.877,-2.725 -4.315,-6.177 -4.315,-10.36 z"
   fill="#ec008c"
   clip-rule="evenodd"
   fill-rule="evenodd" />
	<path
   id="path4"
   d="m 123.744,33.314 c -0.395,-1.512 -1.121,-2.818 -2.18,-3.924 -1.686,-1.805 -3.855,-2.706 -6.502,-2.706 -2.647,0 -4.816,0.901 -6.504,2.706 -1.688,1.764 -2.533,4.046 -2.533,6.848 0,2.802 0.846,5.104 2.533,6.905 1.688,1.766 3.857,2.648 6.504,2.648 2.647,0 4.816,-0.883 6.502,-2.648 0.438,-0.465 0.816,-0.963 1.139,-1.496 l 4.09,3.07 c -0.482,0.661 -1.041,1.288 -1.66,1.88 -2.799,2.687 -6.156,4.028 -10.07,4.028 -3.914,0 -7.252,-1.342 -10.014,-4.028 -2.879,-2.725 -4.318,-6.179 -4.318,-10.359 0,-4.183 1.439,-7.654 4.318,-10.417 2.762,-2.647 6.1,-3.972 10.014,-3.972 3.914,0 7.252,1.324 10.014,3.972 2.879,2.763 4.316,6.234 4.316,10.417 0,0.572 -0.025,1.131 -0.08,1.677 h -16.58 v -4.601 h 11.011"
   fill="#f15a37" />
	<path
   id="path6"
   d="M 10,36.204 V 10 h 5.296 v 14.99 c 2.563,-2.072 5.573,-3.107 9.036,-3.107 3.913,0 7.25,1.323 10.015,3.971 2.877,2.762 4.315,6.234 4.315,10.416 0,4.184 -1.42,7.636 -4.26,10.36 -2.8,2.686 -6.157,4.027 -10.07,4.027 -3.914,0 -7.252,-1.342 -10.015,-4.027 C 11.439,43.905 10,40.453 10,36.27 v -0.066 m 5.296,0.066 c 0,2.802 0.844,5.104 2.532,6.907 1.688,1.766 3.856,2.647 6.504,2.647 2.646,0 4.814,-0.882 6.503,-2.647 1.688,-1.804 2.533,-4.105 2.533,-6.907 0,-2.801 -0.846,-5.083 -2.533,-6.849 -1.688,-1.802 -3.856,-2.704 -6.503,-2.704 -2.647,0 -4.815,0.902 -6.504,2.704 -1.688,1.766 -2.532,4.048 -2.532,6.849 z"
   fill="#f15a37" />
	<path
   id="path8"
   d="M 86.668,50.637 H 81.383 V 34.481 c 0,-3.727 1.162,-6.749 3.486,-9.074 2.322,-2.364 5.268,-3.545 8.834,-3.545 3.564,0 6.51,1.181 8.834,3.545 2.322,2.325 3.482,5.348 3.482,9.074 v 16.155 h -5.287 V 34.481 c 0,-2.163 -0.701,-3.966 -2.104,-5.408 -1.361,-1.442 -3.004,-2.163 -4.926,-2.163 -1.924,0 -3.588,0.721 -4.988,2.163 -1.361,1.442 -2.045,3.245 -2.045,5.408 l -10e-4,16.156"
   fill="#ec008c" />
	<path
   id="path10"
   d="m 138.461,26.677 c -2.648,0 -4.832,0.901 -6.52,2.703 -1.688,1.766 -2.531,4.063 -2.531,6.865 v 1.669 h -5.281 v -1.686 c 0,-4.181 1.424,-7.652 4.301,-10.415 2.764,-2.649 6.102,-3.972 10.016,-3.972 h 1.582 v 4.835 h -1.567"
   fill="#ec008c" />
	<path
   id="path12"
   d="m 81.383,35.614 h 5.285 v 17.957 c 0,3.727 -1.162,6.751 -3.486,9.075 -2.324,2.363 -5.268,3.545 -8.834,3.545 -3.565,0 -6.511,-1.182 -8.834,-3.545 -2.322,-2.324 -3.484,-5.349 -3.484,-9.075 h 5.287 c 0,2.164 0.701,3.967 2.104,5.408 1.361,1.444 3.004,2.163 4.927,2.163 1.924,0 3.588,-0.719 4.99,-2.163 1.359,-1.441 2.041,-3.244 2.041,-5.408 l 0.002,-4.967 c -1.988,1.355 -4.332,2.031 -7.033,2.031 -3.565,0 -6.511,-1.181 -8.834,-3.545 -2.322,-2.324 -3.484,-5.348 -3.484,-9.073 v -2.403 h 5.287 v 2.403 c 0,2.163 0.701,3.966 2.104,5.409 1.361,1.441 3.004,2.162 4.927,2.162 1.924,0 3.588,-0.721 4.99,-2.162 1.359,-1.443 2.041,-3.246 2.041,-5.409 l 0.004,-2.403"
   fill="#f15a37" />
	<path
   id="path14"
   d="m 33.369,36.298 c -0.017,-4.21 1.438,-7.683 4.315,-10.445 2.763,-2.646 6.123,-3.971 10.036,-3.971 v 4.834 c -2.668,0 -4.837,0.903 -6.524,2.705 -1.688,1.766 -2.533,4.075 -2.533,6.877 h -5.294"
   fill="#ec008c" />
</g>
</svg>
