<?xml version="1.0" encoding="UTF-8" standalone="no"?>
<svg
   xmlns:dc="http://purl.org/dc/elements/1.1/"
   xmlns:cc="http://creativecommons.org/ns#"
   xmlns:rdf="http://www.w3.org/1999/02/22-rdf-syntax-ns#"
   xmlns:svg="http://www.w3.org/2000/svg"
   xmlns="http://www.w3.org/2000/svg"
   xmlns:sodipodi="http://sodipodi.sourceforge.net/DTD/sodipodi-0.dtd"
   xmlns:inkscape="http://www.inkscape.org/namespaces/inkscape"
   viewBox="0 0 1000 232.81076"
   role="img"
   height="232.81076"
   width="1000"
   class="w2fxfvyp w2fxfv155 w2fxfv10n w2fxfvc7 nav-StoreLogo-svg"
   version="1.1"
   id="svg3809"
   sodipodi:docname="A.svg"
   inkscape:version="0.92.4 (5da689c313, 2019-01-14)">
  <metadata
     id="metadata3815">
    <rdf:RDF>
      <cc:Work
         rdf:about="">
        <dc:format>image/svg+xml</dc:format>
        <dc:type
           rdf:resource="http://purl.org/dc/dcmitype/StillImage" />
        <dc:title>Wayfair.co.uk</dc:title>
      </cc:Work>
    </rdf:RDF>
  </metadata>
  <defs
     id="defs3813" />
  <sodipodi:namedview
     pagecolor="#ffffff"
     bordercolor="#111111"
     borderopacity="1"
     objecttolerance="10"
     gridtolerance="10"
     guidetolerance="10"
     inkscape:pageopacity="0"
     inkscape:pageshadow="2"
     inkscape:window-width="1920"
     inkscape:window-height="1017"
     id="namedview3811"
     showgrid="false"
     fit-margin-top="0"
     fit-margin-left="0"
     fit-margin-right="0"
     fit-margin-bottom="0"
     inkscape:zoom="1.0484102"
     inkscape:cx="450.37058"
     inkscape:cy="178.14986"
     inkscape:window-x="1912"
     inkscape:window-y="-8"
     inkscape:window-maximized="1"
     inkscape:current-layer="svg3809" />
  <title
     id="title3773">Wayfair.co.uk</title>
  <ellipse
     cx="881.1908"
     cy="18.900751"
     rx="18.916464"
     ry="18.445124"
     id="ellipse3779"
     style="fill:#7b189f;stroke-width:0px" />
  <rect
     x="-51.767399"
     y="58.370766"
     width="991.31"
     height="200.69"
     id="rect3781"
     style="fill:none;stroke-width:0px" />
  <path
     d="M 76.549772,176.517 20.978732,120.94596 1.8108861,140.11381 c -1.91678449,1.91678 -2.15245479,3.34651 -1.44544409,5.75035 l 9.09687049,35.4448 c 0.9583935,3.83357 2.8751775,5.75035 6.7087465,6.70874 l 35.444803,9.09688 c 2.388125,0.72272 3.833569,0.48705 5.750353,-1.44545 l 19.167846,-19.16784 v 0 z m 9.096871,0 19.167847,19.16784 c 1.91678,1.91679 3.34652,2.15246 5.75035,1.44545 l 35.44481,-9.09687 c 3.83357,-0.9584 5.75035,-2.87518 6.70874,-6.70875 l 9.09687,-35.4448 c 0.72273,-2.38812 0.48706,-3.83357 -1.44544,-5.75035 l -19.16785,-19.16785 -55.571038,55.57104 v 0 z m 0,-120.238949 55.571047,55.571039 19.16784,-19.167845 c 1.91679,-1.916784 2.15246,-3.346517 1.44544,-5.750353 L 152.7341,51.486089 c -0.95839,-3.833569 -2.87517,-5.750353 -6.70874,-6.708746 l -35.4448,-9.096871 c -2.38813,-0.722722 -3.83357,-0.487051 -5.75036,1.445445 L 85.662354,56.293762 v 0 z m -9.096871,0 L 57.381927,37.110205 C 55.465142,35.193421 54.03541,34.95775 51.631573,35.664761 l -35.444802,9.096871 c -3.833569,0.958392 -5.750354,2.875177 -6.7087465,6.708746 L 0.38115341,86.91518 c -0.7227221,2.388125 -0.4870518,3.833569 1.44544409,5.750354 L 20.994443,111.83338 76.565483,56.262339 v 0 z"
     id="path3783"
     inkscape:connector-curvature="0"
     style="fill:#7b189f;stroke-width:0px" />
  <path
     d="m 709.21436,80.929157 h -29.47449 v 86.679513 c 0,4.50915 -3.66074,8.1699 -8.1699,8.1699 H 648.59998 V 80.929157 H 621.79642 L 586.22592,181.7803 c -14.37588,40.47243 -28.50038,51.03046 -53.65425,51.03046 -4.79196,0 -12.4591,-0.95839 -20.12624,-2.38812 l 6.7873,-22.2787 h 10.95081 c 12.09774,0 18.46084,-3.75501 22.64006,-14.29732 4.1635,-10.54232 4.27348,-12.1763 4.30491,-12.28628 L 514.48791,57.000773 h 27.02352 c 3.58218,0 6.75588,2.340991 7.80854,5.766065 l 24.10121,78.305362 25.38953,-77.362682 c 1.68112,-4.791961 3.83357,-6.708745 8.62554,-6.708745 h 41.17944 V 53.654255 C 648.61569,18.445123 664.90836,0 695.81258,0 c 4.79196,0 15.63279,0.864124 22.09016,2.309568 l -6.83444,22.37296 h -9.04974 c -12.30198,0 -22.27869,9.976707 -22.27869,22.278693 V 57.032195 H 716.473 l -7.25864,23.944096 v 0 z"
     id="path3785"
     inkscape:connector-curvature="0"
     style="fill:#7b189f;stroke-width:0px" />
  <path
     d="M 318.96017,140.0981 295.01608,62.248363 c -1.19407,-4.069239 -2.87518,-5.279013 -6.94442,-5.279013 h -22.75003 c -4.06924,0 -5.75036,1.194062 -6.94442,5.279013 L 234.18174,140.0981 212.62576,56.985061 h -34.25074 l 34.50213,113.545919 c 1.19406,4.06924 2.87517,5.27901 6.94441,5.27901 h 23.70843 c 4.06924,0 5.75035,-1.19406 6.94441,-5.27901 l 25.15387,-80.002189 25.38954,80.002189 c 1.19406,4.06924 2.87518,5.27901 6.94442,5.27901 h 21.3203 c 4.06924,0 5.75035,-1.19406 6.94441,-5.27901 L 370.72907,56.985061 H 340.78324 L 318.9916,140.0981 v 0 z"
     id="path3787"
     inkscape:connector-curvature="0"
     style="fill:#7b189f;stroke-width:0px" />
  <rect
     x="865.62079"
     y="56.985062"
     width="31.139893"
     height="118.80922"
     id="rect3789"
     style="fill:#7b189f;stroke-width:0px" />
  <path
     d="m 469.69485,63.693807 -0.72272,13.668873 c -7.43147,-17.722401 -22.51436,-22.765744 -40.23676,-22.765744 -32.56963,0 -52.93154,29.458779 -52.93154,61.792734 0,32.33396 20.36191,61.79273 52.93154,61.79273 17.7224,0 32.821,-5.04334 40.23676,-22.76574 l 0.72272,13.66887 c 0,4.55629 2.15246,6.70875 5.98603,6.70875 h 24.91819 V 56.985061 h -24.91819 c -3.83357,0 -5.98603,2.152455 -5.98603,6.708746 z m -32.114,89.648953 c -19.63918,0 -30.8728,-16.37122 -30.8728,-36.95309 0,-20.581866 11.21791,-36.953092 30.8728,-36.953092 19.6549,0 30.8728,16.371226 30.8728,36.953092 0,20.58187 -11.2179,36.95309 -30.8728,36.95309 z"
     id="path3791"
     inkscape:connector-curvature="0"
     style="fill:#7b189f;stroke-width:0px" />
  <path
     d="M 808.51009,63.693807 807.78736,77.36268 C 800.3559,59.640279 785.273,54.596936 767.5506,54.596936 c -32.56963,0 -52.93153,29.458779 -52.93153,61.792734 0,32.33396 20.3619,61.79273 52.93153,61.79273 17.7224,0 32.82101,-5.04334 40.23676,-22.76574 l 0.72273,13.66887 c 0,4.55629 2.15245,6.70875 5.98602,6.70875 h 24.9182 V 56.985061 h -24.9182 c -3.83357,0 -5.98602,2.152455 -5.98602,6.708746 z m -32.114,89.648953 c -19.63919,0 -30.8728,-16.37122 -30.8728,-36.95309 0,-20.581866 11.2179,-36.953092 30.8728,-36.953092 19.6549,0 30.8728,16.371226 30.8728,36.953092 0,20.58187 -11.2179,36.95309 -30.8728,36.95309 z"
     id="path3793"
     inkscape:connector-curvature="0"
     style="fill:#7b189f;stroke-width:0px" />
  <path
     d="m 991.86152,55.790999 c -18.44512,0 -31.61123,5.656085 -37.36158,27.699107 l -0.48705,-19.796299 c 0,-4.556291 -2.15246,-6.708746 -5.98603,-6.708746 h -24.9182 V 175.79428 h 31.1399 v -59.40461 c 0,-20.833248 11.97204,-34.25074 32.56962,-34.25074 h 5.62466 L 1000,57.283577 c -2.9066,-1.241197 -5.98602,-1.492578 -8.13848,-1.492578 z"
     id="path3795"
     inkscape:connector-curvature="0"
     style="fill:#7b189f;stroke-width:0px" />
</svg>
