<?xml version="1.0" encoding="UTF-8" standalone="no"?>
<svg
   xmlns:dc="http://purl.org/dc/elements/1.1/"
   xmlns:cc="http://creativecommons.org/ns#"
   xmlns:rdf="http://www.w3.org/1999/02/22-rdf-syntax-ns#"
   xmlns:svg="http://www.w3.org/2000/svg"
   xmlns="http://www.w3.org/2000/svg"
   xmlns:sodipodi="http://sodipodi.sourceforge.net/DTD/sodipodi-0.dtd"
   xmlns:inkscape="http://www.inkscape.org/namespaces/inkscape"
   width="1000"
   height="340.32434"
   viewBox="0 0 1000 340.32434"
   version="1.1"
   id="svg55"
   sodipodi:docname="A.svg"
   inkscape:version="0.92.4 (5da689c313, 2019-01-14)">
  <metadata
     id="metadata61">
    <rdf:RDF>
      <cc:Work
         rdf:about="">
        <dc:format>image/svg+xml</dc:format>
        <dc:type
           rdf:resource="http://purl.org/dc/dcmitype/StillImage" />
        <dc:title></dc:title>
      </cc:Work>
    </rdf:RDF>
  </metadata>
  <defs
     id="defs59" />
  <sodipodi:namedview
     pagecolor="#ffffff"
     bordercolor="#111111"
     borderopacity="1"
     objecttolerance="10"
     gridtolerance="10"
     guidetolerance="10"
     inkscape:pageopacity="0"
     inkscape:pageshadow="2"
     inkscape:window-width="1920"
     inkscape:window-height="1017"
     id="namedview57"
     showgrid="false"
     fit-margin-top="0"
     fit-margin-left="0"
     fit-margin-right="0"
     fit-margin-bottom="0"
     inkscape:zoom="0.88031915"
     inkscape:cx="509.59968"
     inkscape:cy="63.765369"
     inkscape:window-x="1912"
     inkscape:window-y="-8"
     inkscape:window-maximized="1"
     inkscape:current-layer="svg55" />
  <path
     d="M 727.84043,252.60638 C 723.70213,205.93617 684.12766,194.30851 645.5,181.40425 610.58511,169.73404 577.7766,166.85106 574.26596,141.84042 570.5,115.29787 596.57447,97.43617 623.88298,102.24468 c 29.60638,5.23404 35.2234,28.03191 28.38298,42.79787 13.65957,16.91489 47.5851,15.17021 58.01064,3.34043 8.59574,-9.67022 11.48936,-25.65958 -6.53192,-40.82979 C 681.68085,88.95744 636.39362,80.0851 593.01064,88.21276 c -42.6383,8 -76.40426,36.52128 -72.58511,78.02128 4.11702,44.6383 35.9149,57.60638 86.26596,71.05319 48.7234,13.02128 64.68085,30.34043 61.5,52.95745 -2.84043,20.23404 -20.03192,36.80851 -56.7766,32.55319 -36.75532,-4.2766 -56.07446,-32.39362 -48.57446,-64.18085 -41.85107,-9.61702 -59.92554,31.62766 -25.0532,58.78723 33.5532,26.20213 99.44681,28.44681 136.58511,14.2766 33.28723,-12.60639 57.28723,-35.81915 53.46809,-79.07447 z M 443.45745,72.81915 c 22.74468,0 41.17021,-16.30852 41.17021,-36.4149 C 484.62766,16.30851 466.20213,0 443.45745,0 c -22.74468,0 -41.17022,16.28723 -41.17022,36.40425 0,20.12766 18.42554,36.4149 41.17022,36.4149 z m 32.44681,19.91489 a 79.744681,79.744681 0 0 1 -64.89362,0 v 240.37234 h 65.04255 V 92.76595 l -0.14893,-0.0213 z M 901.7234,85.55319 a 104.55319,104.55319 0 0 0 -63.10638,20.46808 V 7.2234 h -66.7234 v 325.84043 h 66.47872 V 182.11702 c 0,-38.34043 5.88298,-56.48936 25.21277,-71 17.55319,-13.15958 42.32978,-10.82979 55.81915,-1.40426 16.27659,11.38298 15.55319,38.67022 15.55319,60.43617 V 333.09574 H 1000 V 169.15957 c 0,-58.51064 -39.74468,-83.60638 -98.2766,-83.60638 z M 298.7766,333.10638 H 233.7234 L 182.61702,184.34042 146.52128,333.05319 H 81.446809 L 0,92.75532 H 66.797872 L 135.75532,300.68085 C 160.43617,231 175.89362,166.04255 151.92553,92.75532 h 65.04256 z M 325.80851,85.20212 a 248.74468,248.74468 0 0 1 -54.25532,66.06383 270.76596,270.76596 0 0 1 54.25532,88.06383 271.09574,271.09574 0 0 1 54.31915,-88.06383 249.20213,249.20213 0 0 1 -54.31915,-66.06383 z"
     id="path53"
     inkscape:connector-curvature="0"
     style="fill:#1e1e1c;stroke-width:10.63829803" />
</svg>
